<svg xmlns="http://www.w3.org/2000/svg" width="238.433" height="205.63" viewBox="0 0 238.433 205.63">
  <g id="type_text" data-name="type text" transform="translate(-27.1 -60.748)">
    <g id="Background_Simple" data-name="Background Simple" transform="translate(37.119 60.748)">
      <g id="Group_6767" data-name="Group 6767">
        <path id="Path_5612" data-name="Path 5612" d="M246.809,124.405c1.209-12.515,4.109-24.369-1.013-36.411-9.405-22.114-37.764-33.84-59.805-23.371-11.269,5.352-20.909,13.14-33.321,16-33.5,7.731-85.21-33.467-103.449,14.5-6.256,16.454-3.748,38.142,7.585,51.9,3.636,4.413,8.073,8.259,10.762,13.306,7.359,13.813-3.056,29-7.776,41.886-11.153,30.454,30.9,47.306,53.724,50.411,37.75,5.138,68.871-38.061,106.392-20.449,26.148,12.274,49.095-17.61,44.292-47.494-3.145-19.565-19.054-38.289-17.568-58.224Q246.709,125.427,246.809,124.405Z" transform="translate(-45.874 -60.748)" fill="#f6f8fc"/>
      </g>
    </g>
    <g id="Plant" transform="translate(27.1 78.754)">
      <g id="Group_6770" data-name="Group 6770">
        <circle id="Ellipse_311" data-name="Ellipse 311" cx="18.426" cy="18.426" r="18.426" transform="translate(12.884 16.921)" fill="#fff" stroke="#263238" stroke-linecap="round" stroke-linejoin="round" stroke-width="1"/>
        <circle id="Ellipse_312" data-name="Ellipse 312" cx="18.426" cy="18.426" r="18.426" transform="translate(11.511 15.09)" fill="#fff" stroke="#263238" stroke-linecap="round" stroke-linejoin="round" stroke-width="1"/>
        <circle id="Ellipse_313" data-name="Ellipse 313" cx="16.595" cy="16.595" r="16.595" transform="translate(13.342 16.921)" fill="#263238" stroke="#263238" stroke-linecap="round" stroke-linejoin="round" stroke-width="1"/>
        <g id="Group_6768" data-name="Group 6768" transform="translate(0 6.621)">
          <path id="Path_5614" data-name="Path 5614" d="M55.091,121.318a26.519,26.519,0,0,0-5.036-7.783c-3.2-3.2-16.251-5.264-16.251-5.264a47.742,47.742,0,0,1,5.723,6.638c2.976,4.12,12.817,13.5,12.817,13.5s-4.806-4.12-9.156-4.578-15.336,1.831-16.022,1.831,4.12,1.831,7.553,3.433,16.709,2.976,16.709,2.976-5.722,1.6-9.614,2.976S34.261,146.5,34.261,146.5s5.036-4.578,9.385-5.723,10.529-3.2,10.529-3.2-3.891,4.349-4.807,7.325-.229,9.842-.229,9.842,2.06-6.409,4.578-8.927a48.615,48.615,0,0,0,5.264-6.867,63.387,63.387,0,0,1,3.433,6.409,50.819,50.819,0,0,1,2.976,9.614s2.976-6.409,2.747-9.614-3.662-8.927-3.662-8.927A6.239,6.239,0,0,1,70.2,136.2c3.433,1.373,9.385,7.1,9.385,7.1s-1.374-7.554-3.662-10.529-12.131-3.891-12.131-3.891,5.493-3.2,8.927-3.891,8.011.915,8.011.915-5.264-7.324-9.385-7.782-10.3,5.951-10.3,5.951l1.831-9.156c.458-2.289-.458-8.012-.458-8.012s-2.518,1.374-5.493,5.723A11.384,11.384,0,0,0,55.091,121.318Z" transform="translate(-27.1 -106.897)" fill="#0f874d"/>
          <path id="Path_5616" data-name="Path 5616" d="M88,119.151c.159-.658.334-1.313.526-1.96" transform="translate(-55.503 -111.698)" fill="none" stroke="#263238" stroke-linecap="round" stroke-linejoin="round" stroke-width="0.5"/>
          <path id="Path_5617" data-name="Path 5617" d="M59.354,120.861a31.232,31.232,0,0,1,6.2,5.6c2.518,3.433,7.554,10.758,7.554,10.758a68,68,0,0,1,1.162-14.674" transform="translate(-42.142 -113.409)" fill="none" stroke="#263238" stroke-linecap="round" stroke-linejoin="round" stroke-width="0.5"/>
          <path id="Path_5618" data-name="Path 5618" d="M53.388,116.763s.67.424,1.667,1.112" transform="translate(-39.36 -111.498)" fill="none" stroke="#263238" stroke-linecap="round" stroke-linejoin="round" stroke-width="0.5"/>
          <path id="Path_5619" data-name="Path 5619" d="M85.129,143.208s8.7-8.7,12.36-9.385,6.866,2.06,6.866,2.06" transform="translate(-54.162 -119.403)" fill="none" stroke="#263238" stroke-linecap="round" stroke-linejoin="round" stroke-width="0.5"/>
          <path id="Path_5620" data-name="Path 5620" d="M53.979,165.137c-2.116,1.349-2.307,2.111-2.307,2.111" transform="translate(-38.559 -134.058)" fill="none" stroke="#263238" stroke-linecap="round" stroke-linejoin="round" stroke-width="0.5"/>
          <path id="Path_5621" data-name="Path 5621" d="M91.886,160.517s-1.373-3.433-6.18-5.035-12.36-1.831-12.36-1.831-10.591,3.467-14.464,5.277" transform="translate(-41.921 -128.701)" fill="none" stroke="#263238" stroke-linecap="round" stroke-linejoin="round" stroke-width="0.5"/>
          <path id="Path_5622" data-name="Path 5622" d="M77.324,151.2c2.558.744,4.622,1.307,4.622,1.307" transform="translate(-50.522 -127.559)" fill="none" stroke="#263238" stroke-linecap="round" stroke-linejoin="round" stroke-width="0.5"/>
          <path id="Path_5623" data-name="Path 5623" d="M47.107,143.581a26.551,26.551,0,0,1,7.472,1.254c1.452.622,4.315,1.527,7.012,2.33" transform="translate(-36.43 -124.005)" fill="none" stroke="#263238" stroke-linecap="round" stroke-linejoin="round" stroke-width="0.5"/>
          <path id="Path_5624" data-name="Path 5624" d="M40.52,143.356s.836,0,2.073.049" transform="translate(-33.359 -123.9)" fill="none" stroke="#263238" stroke-linecap="round" stroke-linejoin="round" stroke-width="0.5"/>
          <path id="Path_5625" data-name="Path 5625" d="M78.728,156.224s-6.409,9.614-6.867,11.9a23.363,23.363,0,0,0-.458,4.12" transform="translate(-47.761 -129.901)" fill="none" stroke="#263238" stroke-linecap="round" stroke-linejoin="round" stroke-width="0.5"/>
          <path id="Path_5626" data-name="Path 5626" d="M90.467,161.891a22.885,22.885,0,0,1,3.332,5.445,37.325,37.325,0,0,1,1.6,6.409" transform="translate(-56.652 -132.544)" fill="none" stroke="#263238" stroke-linecap="round" stroke-linejoin="round" stroke-width="0.5"/>
          <path id="Path_5627" data-name="Path 5627" d="M86.844,157.511s.509.565,1.218,1.436" transform="translate(-54.962 -130.501)" fill="none" stroke="#263238" stroke-linecap="round" stroke-linejoin="round" stroke-width="0.5"/>
        </g>
        <g id="Group_6769" data-name="Group 6769" transform="translate(6.929)">
          <path id="Path_5628" data-name="Path 5628" d="M58.238,117.5a26.505,26.505,0,0,1-.449-9.259c.734-4.472,10.13-13.755,10.13-13.755a47.792,47.792,0,0,0-.776,8.729c-.014,5.082-2.535,18.446-2.535,18.446s1.5-6.15,4.767-9.059,13.525-7.458,14.083-7.858-2.279,3.891-4.133,7.195-11.837,12.163-11.837,12.163,5.582-2.036,9.544-3.19,12.811,4.89,12.811,4.89-6.761-.781-10.96.826-10.422,3.539-10.422,3.539,5.7,1.263,8.177,3.146,5.927,7.862,5.927,7.862-5.412-4-8.925-4.581a48.588,48.588,0,0,1-8.282-2.507,63.437,63.437,0,0,0,.949,7.208,50.852,50.852,0,0,0,3.19,9.545s-6.155-3.47-7.839-6.207-2.232-9.387-2.232-9.387a6.24,6.24,0,0,0-4.781,3.152c-1.988,3.118-3.484,11.237-3.484,11.237s-3.29-6.936-3.167-10.689,7.584-10.236,7.584-10.236-6.331.6-9.521,2.046-5.973,5.416-5.973,5.416,0-9.02,3.083-11.8,11.838-1.174,11.838-1.174l-6.827-6.369c-1.707-1.592-4.3-6.774-4.3-6.774s2.846-.353,7.8,1.444A11.383,11.383,0,0,1,58.238,117.5Z" transform="translate(-40.085 -94.49)" fill="#25b771"/>
          <path id="Path_5629" data-name="Path 5629" d="M58.252,130.816c-.513-.441-1.037-.871-1.571-1.284" transform="translate(-47.825 -110.832)" fill="none" stroke="#263238" stroke-linecap="round" stroke-linejoin="round" stroke-width="0.5"/>
          <path id="Path_5630" data-name="Path 5630" d="M73.161,115.227a31.253,31.253,0,0,0-1.773,8.162c-.043,4.257.139,13.144.139,13.144a67.985,67.985,0,0,0-9.5-11.241" transform="translate(-50.317 -104.161)" fill="none" stroke="#263238" stroke-linecap="round" stroke-linejoin="round" stroke-width="0.5"/>
          <path id="Path_5631" data-name="Path 5631" d="M84.732,108.418s-.3.735-.706,1.876" transform="translate(-60.577 -100.985)" fill="none" stroke="#263238" stroke-linecap="round" stroke-linejoin="round" stroke-width="0.5"/>
          <path id="Path_5632" data-name="Path 5632" d="M62.449,154.26s-12.138-1.992-15.513-.414-4.376,5.678-4.376,5.678" transform="translate(-41.239 -121.888)" fill="none" stroke="#263238" stroke-linecap="round" stroke-linejoin="round" stroke-width="0.5"/>
          <path id="Path_5633" data-name="Path 5633" d="M111.446,149.211c2.506-.139,3.1.369,3.1.369" transform="translate(-73.365 -119.998)" fill="none" stroke="#263238" stroke-linecap="round" stroke-linejoin="round" stroke-width="0.5"/>
          <path id="Path_5634" data-name="Path 5634" d="M59.561,170.159s-.887-3.59,2.083-7.7,8.972-8.7,8.972-8.7,10.625-3.362,14.827-4.151" transform="translate(-49.11 -120.199)" fill="none" stroke="#263238" stroke-linecap="round" stroke-linejoin="round" stroke-width="0.5"/>
          <path id="Path_5635" data-name="Path 5635" d="M83.377,150.353c-1.643,2.1-2.992,3.758-2.992,3.758" transform="translate(-58.879 -120.542)" fill="none" stroke="#263238" stroke-linecap="round" stroke-linejoin="round" stroke-width="0.5"/>
          <path id="Path_5636" data-name="Path 5636" d="M97.638,126.539a26.537,26.537,0,0,0-5.337,5.376c-.817,1.353-2.615,3.757-4.336,5.983" transform="translate(-62.414 -109.436)" fill="none" stroke="#263238" stroke-linecap="round" stroke-linejoin="round" stroke-width="0.5"/>
          <path id="Path_5637" data-name="Path 5637" d="M109.865,122.514s-.679.488-1.655,1.248" transform="translate(-71.856 -107.559)" fill="none" stroke="#263238" stroke-linecap="round" stroke-linejoin="round" stroke-width="0.5"/>
          <path id="Path_5638" data-name="Path 5638" d="M82.583,158.985s10.813,4.071,12.52,5.663a23.387,23.387,0,0,1,2.775,3.08" transform="translate(-59.904 -124.568)" fill="none" stroke="#263238" stroke-linecap="round" stroke-linejoin="round" stroke-width="0.5"/>
          <path id="Path_5639" data-name="Path 5639" d="M81.527,166.7a22.863,22.863,0,0,0,.47,6.365,37.279,37.279,0,0,0,2.437,6.141" transform="translate(-59.398 -128.167)" fill="none" stroke="#263238" stroke-linecap="round" stroke-linejoin="round" stroke-width="0.5"/>
          <path id="Path_5640" data-name="Path 5640" d="M81.808,161.031s-.084.755-.151,1.877" transform="translate(-59.473 -125.522)" fill="none" stroke="#263238" stroke-linecap="round" stroke-linejoin="round" stroke-width="0.5"/>
        </g>
      </g>
    </g>
    <g id="Device" transform="translate(69.093 77.122)">
      <g id="Group_6775" data-name="Group 6775" transform="translate(0 0)">
        <path id="Rectangle_2638" data-name="Rectangle 2638" d="M10.667,0H121.676a10.667,10.667,0,0,1,10.667,10.667V78.7a11.667,11.667,0,0,1-11.667,11.667H11.667A11.667,11.667,0,0,1,0,78.7V10.667A10.667,10.667,0,0,1,10.667,0Z" transform="translate(13.007 49.095)" fill="#fff" stroke="#263238" stroke-linecap="round" stroke-linejoin="round" stroke-width="1"/>
        <g id="Group_6771" data-name="Group 6771" transform="translate(21.545 57.989)">
          <rect id="Rectangle_2639" data-name="Rectangle 2639" width="7.451" height="4.894" transform="translate(33.973)" fill="#263238"/>
          <rect id="Rectangle_2640" data-name="Rectangle 2640" width="6.917" height="6.862" transform="translate(10.372 30.187)" fill="#263238"/>
          <rect id="Rectangle_2641" data-name="Rectangle 2641" width="6.97" height="6.862" transform="translate(40.873 6.07)" fill="#263238"/>
          <rect id="Rectangle_2642" data-name="Rectangle 2642" width="7.451" height="4.894" transform="translate(25.346)" fill="#263238"/>
          <rect id="Rectangle_2643" data-name="Rectangle 2643" width="6.97" height="6.862" transform="translate(49.02 6.07)" fill="#263238"/>
          <rect id="Rectangle_2644" data-name="Rectangle 2644" width="7.451" height="4.894" transform="translate(42.6)" fill="#263238"/>
          <rect id="Rectangle_2645" data-name="Rectangle 2645" width="13.109" height="6.862" transform="translate(0 22.148)" fill="#263238"/>
          <rect id="Rectangle_2646" data-name="Rectangle 2646" width="6.97" height="6.862" transform="translate(24.581 6.07)" fill="#263238"/>
          <rect id="Rectangle_2647" data-name="Rectangle 2647" width="9.195" height="6.862" transform="translate(0 30.187)" fill="#263238"/>
          <rect id="Rectangle_2648" data-name="Rectangle 2648" width="7.451" height="4.894" transform="translate(51.227)" fill="#263238"/>
          <rect id="Rectangle_2649" data-name="Rectangle 2649" width="6.97" height="6.862" transform="translate(8.288 6.07)" fill="#263238"/>
          <rect id="Rectangle_2650" data-name="Rectangle 2650" width="7.451" height="4.894" transform="translate(8.092)" fill="#263238"/>
          <rect id="Rectangle_2651" data-name="Rectangle 2651" width="7.451" height="4.894" transform="translate(16.719)" fill="#263238"/>
          <rect id="Rectangle_2652" data-name="Rectangle 2652" width="6.97" height="6.862" transform="translate(16.434 6.07)" fill="#263238"/>
          <rect id="Rectangle_2653" data-name="Rectangle 2653" width="6.97" height="6.862" transform="translate(32.727 6.07)" fill="#263238"/>
          <rect id="Rectangle_2654" data-name="Rectangle 2654" width="7.451" height="4.894" transform="translate(85.735)" fill="#263238"/>
          <rect id="Rectangle_2655" data-name="Rectangle 2655" width="7.451" height="4.894" transform="translate(94.362)" fill="#263238"/>
          <rect id="Rectangle_2656" data-name="Rectangle 2656" width="6.97" height="6.862" transform="translate(89.752 6.07)" fill="#263238"/>
          <rect id="Rectangle_2657" data-name="Rectangle 2657" width="6.97" height="6.862" transform="translate(97.898 6.07)" fill="#263238"/>
          <rect id="Rectangle_2658" data-name="Rectangle 2658" width="10.262" height="6.862" transform="translate(107.494 30.187)" fill="#263238"/>
          <rect id="Rectangle_2659" data-name="Rectangle 2659" width="7.451" height="4.894" transform="translate(102.989)" fill="#263238"/>
          <rect id="Rectangle_2660" data-name="Rectangle 2660" width="7.112" height="6.862" transform="translate(0 6.07)" fill="#263238"/>
          <rect id="Rectangle_2661" data-name="Rectangle 2661" width="7.451" height="4.894" transform="translate(59.854)" fill="#263238"/>
          <rect id="Rectangle_2662" data-name="Rectangle 2662" width="7.451" height="4.894" transform="translate(68.481)" fill="#263238"/>
          <rect id="Rectangle_2663" data-name="Rectangle 2663" width="6.97" height="6.862" transform="translate(65.313 6.07)" fill="#263238"/>
          <rect id="Rectangle_2664" data-name="Rectangle 2664" width="6.97" height="6.862" transform="translate(81.605 6.07)" fill="#263238"/>
          <rect id="Rectangle_2665" data-name="Rectangle 2665" width="6.97" height="6.862" transform="translate(57.166 6.07)" fill="#263238"/>
          <rect id="Rectangle_2666" data-name="Rectangle 2666" width="6.97" height="6.862" transform="translate(73.459 6.07)" fill="#263238"/>
          <rect id="Rectangle_2667" data-name="Rectangle 2667" width="7.451" height="4.894" transform="translate(77.108)" fill="#263238"/>
          <rect id="Rectangle_2668" data-name="Rectangle 2668" width="6.917" height="6.862" transform="translate(67.026 30.187)" fill="#263238"/>
          <rect id="Rectangle_2669" data-name="Rectangle 2669" width="6.917" height="6.862" transform="translate(103.314 22.148)" fill="#263238"/>
          <rect id="Rectangle_2670" data-name="Rectangle 2670" width="6.917" height="6.862" transform="translate(95.22 22.148)" fill="#263238"/>
          <rect id="Rectangle_2671" data-name="Rectangle 2671" width="6.917" height="6.862" transform="translate(99.401 30.187)" fill="#263238"/>
          <rect id="Rectangle_2672" data-name="Rectangle 2672" width="6.917" height="6.862" transform="translate(91.307 30.187)" fill="#263238"/>
          <rect id="Rectangle_2673" data-name="Rectangle 2673" width="6.917" height="6.862" transform="translate(75.12 30.187)" fill="#263238"/>
          <rect id="Rectangle_2674" data-name="Rectangle 2674" width="6.917" height="6.862" transform="translate(83.213 30.187)" fill="#263238"/>
          <rect id="Rectangle_2675" data-name="Rectangle 2675" width="6.917" height="6.862" transform="translate(87.127 22.148)" fill="#263238"/>
          <rect id="Rectangle_2676" data-name="Rectangle 2676" width="6.917" height="6.862" transform="translate(79.033 22.148)" fill="#263238"/>
          <rect id="Rectangle_2677" data-name="Rectangle 2677" width="6.14" height="4.894" transform="translate(111.616)" fill="#263238"/>
          <rect id="Rectangle_2678" data-name="Rectangle 2678" width="6.916" height="4.894" fill="#263238"/>
          <rect id="Rectangle_2679" data-name="Rectangle 2679" width="117.757" height="7.134" transform="translate(0 38.225)" fill="#263238"/>
          <rect id="Rectangle_2680" data-name="Rectangle 2680" width="11.712" height="6.862" transform="translate(106.044 6.07)" fill="#263238"/>
          <rect id="Rectangle_2681" data-name="Rectangle 2681" width="6.349" height="6.862" transform="translate(111.407 22.148)" fill="#263238"/>
          <path id="Path_5641" data-name="Path 5641" d="M255.617,233.35H254.44v-6.812h-6.917v6.812h-1.176v-6.812h-6.917v6.812h-1.176v-6.812h-6.917v6.812H230.16v-6.812h-6.917v6.812h-1.176v-6.812h-6.917v6.812h-1.176v-6.812h-6.917v6.812h-1.176v-6.812h-6.917v6.812h-1.176v-6.812h-6.917v6.812h-1.176v-6.812h-6.917v6.812H181.6v-6.812h-6.917v6.812H173.5v-6.812h-6.917v6.812h-1.176v-6.812h-6.917v6.812h-1.176v-6.812H146.166V233.4H263.922v-6.862h-8.306Z" transform="translate(-146.166 -212.429)" fill="#263238"/>
          <rect id="Rectangle_2682" data-name="Rectangle 2682" width="6.917" height="6.862" transform="translate(46.659 22.148)" fill="#263238"/>
          <rect id="Rectangle_2683" data-name="Rectangle 2683" width="6.917" height="6.862" transform="translate(70.94 22.148)" fill="#263238"/>
          <rect id="Rectangle_2684" data-name="Rectangle 2684" width="6.917" height="6.862" transform="translate(30.472 22.148)" fill="#263238"/>
          <rect id="Rectangle_2685" data-name="Rectangle 2685" width="6.917" height="6.862" transform="translate(34.652 30.187)" fill="#263238"/>
          <rect id="Rectangle_2686" data-name="Rectangle 2686" width="6.917" height="6.862" transform="translate(38.566 22.148)" fill="#263238"/>
          <rect id="Rectangle_2687" data-name="Rectangle 2687" width="6.917" height="6.862" transform="translate(22.379 22.148)" fill="#263238"/>
          <rect id="Rectangle_2688" data-name="Rectangle 2688" width="6.917" height="6.862" transform="translate(18.465 30.187)" fill="#263238"/>
          <rect id="Rectangle_2689" data-name="Rectangle 2689" width="6.917" height="6.862" transform="translate(26.559 30.187)" fill="#263238"/>
          <rect id="Rectangle_2690" data-name="Rectangle 2690" width="6.917" height="6.862" transform="translate(54.753 22.148)" fill="#263238"/>
          <rect id="Rectangle_2691" data-name="Rectangle 2691" width="6.917" height="6.862" transform="translate(58.933 30.187)" fill="#263238"/>
          <rect id="Rectangle_2692" data-name="Rectangle 2692" width="6.917" height="6.862" transform="translate(62.846 22.148)" fill="#263238"/>
          <rect id="Rectangle_2693" data-name="Rectangle 2693" width="6.917" height="6.862" transform="translate(42.746 30.187)" fill="#263238"/>
          <rect id="Rectangle_2694" data-name="Rectangle 2694" width="6.917" height="6.862" transform="translate(50.839 30.187)" fill="#263238"/>
          <rect id="Rectangle_2695" data-name="Rectangle 2695" width="6.917" height="6.862" transform="translate(14.285 22.148)" fill="#263238"/>
        </g>
        <path id="Path_5642" data-name="Path 5642" d="M258.7,91.432H110.529a4.735,4.735,0,0,0-4.573,5.963l10.833,40.337a4.734,4.734,0,0,0,4.573,3.507h15.121v2.778h96.973v-2.778h14.409a4.734,4.734,0,0,0,4.573-3.507l10.833-40.337A4.735,4.735,0,0,0,258.7,91.432Z" transform="translate(-105.791 -91.432)" fill="#263238" stroke="#263238" stroke-linecap="round" stroke-linejoin="round" stroke-width="1"/>
        <path id="Path_5643" data-name="Path 5643" d="M250.707,142.033H136.05l-11.466-41.268H262.172Z" transform="translate(-114.556 -95.785)" fill="#007cff" stroke="#263238" stroke-linecap="round" stroke-linejoin="round" stroke-width="1"/>
      </g>
    </g>
    <g id="Notebook" transform="translate(209.544 154.889)">
      <g id="Group_6778" data-name="Group 6778" transform="translate(0)">
        <g id="Group_6776" data-name="Group 6776">
          <path id="Path_5680" data-name="Path 5680" d="M374.7,292.285l-5.709,22.031,5.4,1.583Z" transform="translate(-368.986 -262.868)" fill="#fff" stroke="#263238" stroke-linecap="round" stroke-linejoin="round" stroke-width="1"/>
          <path id="Path_5681" data-name="Path 5681" d="M383.866,243.3a4.567,4.567,0,0,1-.654-3.352c.295-2.172,2.915-2.668,2.915-2.668s.569-.433,2.674.362,18.315,2.993,28.676,4.4,13.717.5,13.576,4.053-9.238,35.508-9.374,36.511S383.866,243.3,383.866,243.3Z" transform="translate(-375.594 -237.16)" fill="#fff" stroke="#263238" stroke-miterlimit="10" stroke-width="1"/>
          <rect id="Rectangle_2696" data-name="Rectangle 2696" width="43.992" height="52.44" transform="translate(8.272 6.138) rotate(7.72)" fill="#fff" stroke="#263238" stroke-linecap="round" stroke-linejoin="round" stroke-width="1"/>
          <line id="Line_322" data-name="Line 322" x2="2.537" y2="0.344" transform="translate(43.759 22.415)" fill="none" stroke="#263238" stroke-linecap="round" stroke-linejoin="round" stroke-width="0.5"/>
          <line id="Line_323" data-name="Line 323" x2="13.871" y2="1.88" transform="translate(27.883 20.263)" fill="none" stroke="#263238" stroke-linecap="round" stroke-linejoin="round" stroke-width="0.5"/>
          <line id="Line_324" data-name="Line 324" x2="14.802" y2="2.007" transform="translate(11.076 17.985)" fill="none" stroke="#263238" stroke-linecap="round" stroke-linejoin="round" stroke-width="0.5"/>
          <line id="Line_325" data-name="Line 325" x2="5.88" y2="0.797" transform="translate(39.791 26.581)" fill="none" stroke="#263238" stroke-linecap="round" stroke-linejoin="round" stroke-width="0.5"/>
          <line id="Line_326" data-name="Line 326" x2="23.325" y2="3.162" transform="translate(10.45 22.604)" fill="none" stroke="#263238" stroke-linecap="round" stroke-linejoin="round" stroke-width="0.5"/>
          <line id="Line_327" data-name="Line 327" x2="22.758" y2="3.085" transform="translate(22.286 28.912)" fill="none" stroke="#263238" stroke-linecap="round" stroke-linejoin="round" stroke-width="0.5"/>
          <line id="Line_328" data-name="Line 328" x2="10.123" y2="1.372" transform="translate(9.824 27.223)" fill="none" stroke="#263238" stroke-linecap="round" stroke-linejoin="round" stroke-width="0.5"/>
          <line id="Line_329" data-name="Line 329" x2="14.57" y2="1.975" transform="translate(29.848 34.641)" fill="none" stroke="#263238" stroke-linecap="round" stroke-linejoin="round" stroke-width="0.5"/>
          <line id="Line_330" data-name="Line 330" x2="10.695" y2="1.45" transform="translate(17.482 32.965)" fill="none" stroke="#263238" stroke-linecap="round" stroke-linejoin="round" stroke-width="0.5"/>
          <line id="Line_331" data-name="Line 331" x2="6.446" y2="0.874" transform="translate(9.197 31.842)" fill="none" stroke="#263238" stroke-linecap="round" stroke-linejoin="round" stroke-width="0.5"/>
          <line id="Line_332" data-name="Line 332" x2="5.211" y2="0.706" transform="translate(38.581 40.529)" fill="none" stroke="#263238" stroke-linecap="round" stroke-linejoin="round" stroke-width="0.5"/>
          <line id="Line_333" data-name="Line 333" x2="26.5" y2="3.592" transform="translate(8.571 36.461)" fill="none" stroke="#263238" stroke-linecap="round" stroke-linejoin="round" stroke-width="0.5"/>
          <line id="Line_334" data-name="Line 334" x2="14.737" y2="1.998" transform="translate(28.429 43.857)" fill="none" stroke="#263238" stroke-linecap="round" stroke-linejoin="round" stroke-width="0.5"/>
          <line id="Line_335" data-name="Line 335" x2="17.977" y2="2.437" transform="translate(7.945 41.08)" fill="none" stroke="#263238" stroke-linecap="round" stroke-linejoin="round" stroke-width="0.5"/>
          <line id="Line_336" data-name="Line 336" x2="9.556" y2="1.295" transform="translate(32.983 49.178)" fill="none" stroke="#263238" stroke-linecap="round" stroke-linejoin="round" stroke-width="0.5"/>
          <line id="Line_337" data-name="Line 337" x2="17.046" y2="2.311" transform="translate(13.598 46.551)" fill="none" stroke="#263238" stroke-linecap="round" stroke-linejoin="round" stroke-width="0.5"/>
          <line id="Line_338" data-name="Line 338" x2="4.274" y2="0.579" transform="translate(7.319 45.699)" fill="none" stroke="#263238" stroke-linecap="round" stroke-linejoin="round" stroke-width="0.5"/>
          <path id="Path_5682" data-name="Path 5682" d="M466.177,255.347s.749-7.247,3.417-4.332" transform="translate(-414.312 -243.299)" fill="none" stroke="#263238" stroke-linecap="round" stroke-linejoin="round" stroke-width="1"/>
        </g>
        <g id="Group_6777" data-name="Group 6777" transform="translate(22.72 27.926)">
          <path id="Path_5683" data-name="Path 5683" d="M426.676,332.684l-.043,4.6-2.686-3.791-10.774-36.239,2.729-.811Z" transform="translate(-412.313 -292.734)" fill="#fff" stroke="#263238" stroke-linecap="round" stroke-linejoin="round" stroke-width="1"/>
          <rect id="Rectangle_2697" data-name="Rectangle 2697" width="1.553" height="37.807" transform="translate(1.481 4.338) rotate(-16.556)" fill="#007cff" stroke="#263238" stroke-linecap="round" stroke-linejoin="round" stroke-width="0.5"/>
          <path id="Path_5684" data-name="Path 5684" d="M436.1,364.37l-2.724.81,2.681,3.784Z" transform="translate(-421.733 -324.411)" fill="none" stroke="#263238" stroke-linecap="round" stroke-linejoin="round" stroke-width="1"/>
          <path id="Path_5685" data-name="Path 5685" d="M435.883,369.079l1.341,1.892.022-2.3Z" transform="translate(-422.904 -326.419)" fill="#263238" stroke="#263238" stroke-linecap="round" stroke-linejoin="round" stroke-width="1"/>
          <path id="Path_5686" data-name="Path 5686" d="M412.58,289.55h0a1.424,1.424,0,0,0-.959,1.771l.8,2.693,2.729-.812-.8-2.693A1.424,1.424,0,0,0,412.58,289.55Z" transform="translate(-411.562 -289.491)" fill="#fff" stroke="#263238" stroke-linecap="round" stroke-linejoin="round" stroke-width="1"/>
          <path id="Path_5687" data-name="Path 5687" d="M412.58,289.55h0a1.424,1.424,0,0,0-.959,1.771l.383,1.288,2.73-.811-.383-1.289A1.424,1.424,0,0,0,412.58,289.55Z" transform="translate(-411.562 -289.491)" fill="#263238" stroke="#263238" stroke-linecap="round" stroke-linejoin="round" stroke-width="1"/>
        </g>
      </g>
    </g>
    <g id="Character" transform="translate(71.127 152.024)">
      <g id="Group_6787" data-name="Group 6787">
        <g id="Group_6782" data-name="Group 6782" transform="translate(23.343)">
          <g id="Group_6779" data-name="Group 6779" transform="translate(0 3.02)">
            <path id="Path_5688" data-name="Path 5688" d="M160.763,249.488c-.34.481-.681.985-1.016,1.509" transform="translate(-156.332 -243.066)" fill="none" stroke="#fff" stroke-linecap="round" stroke-linejoin="round" stroke-width="1"/>
            <path id="Path_5689" data-name="Path 5689" d="M168.515,237.453a38.631,38.631,0,0,0-4.113,4.467" transform="translate(-158.503 -237.453)" fill="none" stroke="#fff" stroke-linecap="round" stroke-linejoin="round" stroke-width="1"/>
            <path id="Path_5690" data-name="Path 5690" d="M157.3,242.755a57.7,57.7,0,0,0-3.957,6.426" transform="translate(-153.347 -239.926)" fill="none" stroke="#fff" stroke-linecap="round" stroke-linejoin="round" stroke-width="1"/>
          </g>
          <g id="Group_6780" data-name="Group 6780" transform="translate(37.164 11.163)">
            <path id="Path_5691" data-name="Path 5691" d="M230.406,264.747c-.34.481-.681.985-1.016,1.509" transform="translate(-225.975 -258.324)" fill="none" stroke="#fff" stroke-linecap="round" stroke-linejoin="round" stroke-width="1"/>
            <path id="Path_5692" data-name="Path 5692" d="M238.158,252.711a38.613,38.613,0,0,0-4.113,4.467" transform="translate(-228.146 -252.711)" fill="none" stroke="#fff" stroke-linecap="round" stroke-linejoin="round" stroke-width="1"/>
            <path id="Path_5693" data-name="Path 5693" d="M226.947,258.014a57.707,57.707,0,0,0-3.957,6.426" transform="translate(-222.99 -255.184)" fill="none" stroke="#fff" stroke-linecap="round" stroke-linejoin="round" stroke-width="1"/>
          </g>
          <g id="Group_6781" data-name="Group 6781" transform="translate(91.959)">
            <path id="Path_5694" data-name="Path 5694" d="M329.776,239.146c-.487-.332-1-.665-1.525-.992" transform="translate(-326.874 -234.76)" fill="none" stroke="#fff" stroke-linecap="round" stroke-linejoin="round" stroke-width="1"/>
            <path id="Path_5695" data-name="Path 5695" d="M339.347,246.75a38.6,38.6,0,0,0-4.53-4.043" transform="translate(-329.936 -236.883)" fill="none" stroke="#fff" stroke-linecap="round" stroke-linejoin="round" stroke-width="1"/>
            <path id="Path_5696" data-name="Path 5696" d="M332.158,235.65a57.675,57.675,0,0,0-6.487-3.857" transform="translate(-325.671 -231.793)" fill="none" stroke="#fff" stroke-linecap="round" stroke-linejoin="round" stroke-width="1"/>
          </g>
        </g>
        <g id="Group_6785" data-name="Group 6785" transform="translate(62.202 35.028)">
          <g id="Group_6783" data-name="Group 6783">
            <path id="Path_5697" data-name="Path 5697" d="M227.276,301.994c-.274,2.007-.692,4.786-1.11,6.46" transform="translate(-226.166 -299.56)" fill="none" stroke="#263238" stroke-linecap="round" stroke-linejoin="round" stroke-width="1"/>
            <path id="Path_5698" data-name="Path 5698" d="M228.725,297.432s-.044.378-.122.99" transform="translate(-227.303 -297.432)" fill="none" stroke="#263238" stroke-linecap="round" stroke-linejoin="round" stroke-width="1"/>
            <path id="Path_5699" data-name="Path 5699" d="M229.634,308.1a45.139,45.139,0,0,1-2.135,5.692" transform="translate(-226.788 -302.407)" fill="none" stroke="#263238" stroke-linecap="round" stroke-linejoin="round" stroke-width="1"/>
          </g>
          <g id="Group_6784" data-name="Group 6784" transform="translate(29.172 8.538)">
            <path id="Path_5700" data-name="Path 5700" d="M281.5,313.432s.356,4.625,2.846,7.115" transform="translate(-281.143 -313.432)" fill="none" stroke="#263238" stroke-linecap="round" stroke-linejoin="round" stroke-width="1"/>
            <path id="Path_5701" data-name="Path 5701" d="M280.832,322.1s1.067,3.2,3.2,4.625" transform="translate(-280.832 -317.474)" fill="none" stroke="#263238" stroke-linecap="round" stroke-linejoin="round" stroke-width="1"/>
          </g>
        </g>
        <g id="Group_6786" data-name="Group 6786" transform="translate(0 1.365)">
          <path id="Path_5702" data-name="Path 5702" d="M144.961,309.688s2.369-1.906,2.369-18.28,2.729-28.342,6.088-33.591,6.508-7.348,7.977-7.348.42,1.89-1.679,4.619-3.989,4.2-4.829,7.558-.839,7.557.21,7.138,2.729-8.817,4.2-11.967,5.039-7.137,7.138-9.027,6.718-7.558,8.817-6.088.84,3.569-.42,4.409a61.067,61.067,0,0,0-8.608,9.027c-2.309,3.149-3.779,11.127-2.519,11.337s5.038-11.546,7.137-14.066,10.5-9.447,12.386-9.657,2.1,2.729.42,4.2-7.348,7.768-9.237,11.547-2.729,10.706-1.05,9.027,4.409-8.607,6.718-10.917,9.237-9.657,10.917-8.817,1.26,2.939-.21,4.409-7.138,9.447-8.608,13.646-3.149,15.955-2.309,14.276,3.569-10.287,5.039-13.856,4.408-5.248,4.828-3.569-.42,2.519-1.47,6.3-1.05,13.856-4.2,19.524-15.675,17.724-17.355,21.923a57.235,57.235,0,0,1-4.328,8.324" transform="translate(-126.093 -238.133)" fill="#0277f2" style="mix-blend-mode: multiply;isolation: isolate"/>
          <path id="Path_5703" data-name="Path 5703" d="M322.31,311.108s-2.435-3.326-2.435-19.7-2.73-28.342-6.088-33.591-6.508-7.348-7.978-7.348-.419,1.89,1.68,4.619,3.988,4.2,4.828,7.558.84,7.557-.21,7.138-2.73-8.817-4.2-11.967-5.038-7.137-7.137-9.027-6.718-7.558-8.817-6.088-.84,3.569.419,4.409a61.01,61.01,0,0,1,8.608,9.027c2.309,3.149,3.779,11.127,2.519,11.337s-5.039-11.546-7.138-14.066-10.5-9.447-12.386-9.657-2.1,2.729-.42,4.2,7.348,7.768,9.237,11.547,2.729,10.706,1.05,9.027-4.408-8.607-6.718-10.917-9.237-9.657-10.917-8.817-1.259,2.939.21,4.409,7.138,9.447,8.608,13.646,3.149,15.955,2.31,14.276-3.569-10.287-5.039-13.856-4.409-5.248-4.829-3.569.42,2.519,1.47,6.3,1.05,13.856,4.2,19.524,15.326,16.665,17.005,20.864,4.745,10.8,4.745,10.8" transform="translate(-186.794 -238.133)" fill="#007cff" style="mix-blend-mode: multiply;isolation: isolate"/>
          <path id="Path_5704" data-name="Path 5704" d="M143.5,309.958s3.149-10.287,3.149-26.662,2.729-28.342,6.088-33.59,6.508-7.348,7.977-7.348.42,1.89-1.679,4.619-3.989,4.2-4.829,7.557-.839,7.558.21,7.138,2.729-8.817,4.2-11.966,5.039-7.138,7.138-9.027,6.718-7.558,8.817-6.088.84,3.569-.42,4.408a61.108,61.108,0,0,0-8.608,9.028c-2.309,3.149-3.779,11.126-2.519,11.337s5.038-11.547,7.137-14.066,10.5-9.448,12.386-9.657,2.1,2.729.42,4.2-7.348,7.768-9.237,11.546-2.729,10.707-1.05,9.028,4.409-8.608,6.718-10.917,9.237-9.657,10.917-8.817,1.26,2.939-.21,4.408-7.138,9.447-8.608,13.646-3.149,15.955-2.309,14.275,3.569-10.287,5.039-13.856,4.408-5.248,4.828-3.569-.42,2.519-1.47,6.3-1.05,13.856-4.2,19.524-15.326,20.993-17,25.192-5.459,13.436-5.459,13.436" transform="translate(-125.411 -234.35)" fill="#fff" stroke="#263238" stroke-linecap="round" stroke-linejoin="round" stroke-width="1"/>
          <path id="Path_5705" data-name="Path 5705" d="M323.024,309.958s-3.149-10.287-3.149-26.662-2.73-28.342-6.088-33.59-6.508-7.348-7.978-7.348-.419,1.89,1.68,4.619,3.988,4.2,4.828,7.557.84,7.558-.21,7.138-2.73-8.817-4.2-11.966-5.038-7.138-7.137-9.027-6.718-7.558-8.817-6.088-.84,3.569.419,4.408a61.049,61.049,0,0,1,8.608,9.028c2.309,3.149,3.779,11.126,2.519,11.337s-5.039-11.547-7.138-14.066-10.5-9.448-12.386-9.657-2.1,2.729-.42,4.2,7.348,7.768,9.237,11.546,2.729,10.707,1.05,9.028-4.408-8.608-6.718-10.917-9.237-9.657-10.917-8.817-1.259,2.939.21,4.408,7.138,9.447,8.608,13.646,3.149,15.955,2.31,14.275-3.569-10.287-5.039-13.856-4.409-5.248-4.829-3.569.42,2.519,1.47,6.3,1.05,13.856,4.2,19.524S298.461,302.4,300.14,306.6s5.459,13.436,5.459,13.436" transform="translate(-186.794 -234.35)" fill="#fff" stroke="#263238" stroke-linecap="round" stroke-linejoin="round" stroke-width="1"/>
          <path id="Path_5706" data-name="Path 5706" d="M118.6,404.151h31.992c.419-1.6.939-3.391,1.588-5.338,2.516-7.547,10.691-16.98,10.691-16.98a55.14,55.14,0,0,0-20.124-11.32c-12.263-3.773-21.262-2.65-21.262-2.65a49.387,49.387,0,0,1,.534,20.812C120.437,396.447,119.338,401.362,118.6,404.151Z" transform="translate(-113.798 -296.542)" fill="#1f1440" stroke="#263238" stroke-linecap="round" stroke-linejoin="round" stroke-width="1"/>
          <path id="Path_5707" data-name="Path 5707" d="M318.333,406.153H351.6c-1.063-2.765-3.372-8.766-5.681-14.771-3.144-8.175-1.886-19.181-3.144-19.181s-15.408-.943-22.325,1.258-14.779,8.49-14.779,8.49a69.457,69.457,0,0,1,9.119,13.521A46.823,46.823,0,0,1,318.333,406.153Z" transform="translate(-201.042 -298.544)" fill="#1f1440" stroke="#263238" stroke-linecap="round" stroke-linejoin="round" stroke-width="1"/>
          <path id="Path_5708" data-name="Path 5708" d="M134.4,376.823c-.228-.91-3.64.455-3.64.455s1.138-4.323-.683-4.323-2.048,3.185-2.048,3.185-3.413-1.365-3.413.682,2.275,2.048,2.275,2.048-2.73,3.413-.683,4.1,3.413-1.82,3.413-1.82,1.365,2.275,3.185,1.365.455-2.958.455-2.958S134.631,377.733,134.4,376.823Zm-4.55,3.413a.933.933,0,1,1,1.137-.91A1.043,1.043,0,0,1,129.853,380.235Zm9.555,22.069c-.227-.91-3.64.455-3.64.455s1.137-4.323-.683-4.323-2.048,3.185-2.048,3.185-3.413-1.365-3.413.683,2.275,2.048,2.275,2.048-2.73,3.413-.683,4.1,3.413-1.82,3.413-1.82,1.365,2.275,3.185,1.365.455-2.958.455-2.958S139.636,403.215,139.408,402.3Zm-4.55,3.413a.933.933,0,1,1,1.138-.91A1.043,1.043,0,0,1,134.858,405.717Zm-15.471,0c-.228-.91-3.64.455-3.64.455s1.138-4.323-.683-4.323-2.048,3.185-2.048,3.185-3.413-1.365-3.413.682,2.275,2.048,2.275,2.048-2.73,3.413-.683,4.1,3.413-1.82,3.413-1.82,1.365,2.275,3.185,1.365.455-2.957.455-2.957S119.615,406.628,119.387,405.717Zm-4.55,3.413a.933.933,0,1,1,1.137-.91A1.043,1.043,0,0,1,114.837,409.13Zm29.35-21.159h2.5c1.82,0,2.958,2.048,2.958,2.048A4.494,4.494,0,0,1,144.187,387.971Zm-2.5,17.746h2.5c1.82,0,2.957,2.048,2.957,2.048A4.494,4.494,0,0,1,141.684,405.717ZM119.842,402.3h2.5c1.82,0,2.958,2.048,2.958,2.048A4.5,4.5,0,0,1,119.842,402.3Zm12.1-16.058,1.458,2.034c1.06,1.479.059,3.6.059,3.6A4.494,4.494,0,0,1,131.943,386.246Zm-12.55,6.821,1.146-2.225c.833-1.619,3.174-1.693,3.174-1.693A4.494,4.494,0,0,1,119.393,393.068Z" transform="translate(-109.604 -298.99)" fill="#007cff"/>
          <path id="Path_5709" data-name="Path 5709" d="M341.974,384.924c-.228-.91-3.64.455-3.64.455s1.138-4.323-.683-4.323-2.048,3.185-2.048,3.185-3.413-1.365-3.413.683,2.275,2.048,2.275,2.048-2.73,3.413-.683,4.1,3.413-1.82,3.413-1.82,1.365,2.275,3.185,1.365.455-2.957.455-2.957S342.2,385.834,341.974,384.924Zm-4.55,3.413a.933.933,0,1,1,1.137-.91A1.043,1.043,0,0,1,337.423,388.336Zm15.243,14.334c-.227-.91-3.64.455-3.64.455s1.137-4.323-.683-4.323-2.048,3.185-2.048,3.185-3.413-1.365-3.413.683,2.275,2.048,2.275,2.048-2.731,3.413-.683,4.1,3.413-1.82,3.413-1.82,1.365,2.275,3.185,1.366.455-2.958.455-2.958S352.894,403.58,352.667,402.67Zm-4.55,3.413a.933.933,0,1,1,1.138-.91A1.043,1.043,0,0,1,348.116,406.083Zm-6.825,3.413c-.228-.91-3.641.455-3.641.455s1.138-4.323-.683-4.323-2.048,3.185-2.048,3.185-3.413-1.365-3.413.682,2.275,2.048,2.275,2.048-2.73,3.413-.683,4.1,3.413-1.82,3.413-1.82,1.365,2.275,3.185,1.365.455-2.957.455-2.957S341.518,410.406,341.291,409.5Zm-4.55,3.413a.933.933,0,1,1,1.137-.91A1.043,1.043,0,0,1,336.741,412.908Zm15.016-16.836h2.5c1.82,0,2.957,2.048,2.957,2.048A4.494,4.494,0,0,1,351.757,396.072ZM324.91,409.041h2.5c1.82,0,2.958,2.048,2.958,2.048A4.494,4.494,0,0,1,324.91,409.041Zm14.6-14.694,1.458,2.034c1.06,1.479.059,3.6.059,3.6A4.5,4.5,0,0,1,339.513,394.347ZM354.3,407.088l1.458,2.034c1.061,1.479.059,3.6.059,3.6A4.494,4.494,0,0,1,354.3,407.088Zm-27.338-5.919,1.146-2.225c.833-1.618,3.174-1.692,3.174-1.692A4.494,4.494,0,0,1,326.963,401.169Z" transform="translate(-210.014 -302.768)" fill="#007cff"/>
        </g>
      </g>
    </g>
  </g>
</svg>
